<svg width="308" height="403" viewBox="0 0 308 403" fill="none" xmlns="http://www.w3.org/2000/svg">
<path fill-rule="evenodd" clip-rule="evenodd" d="M284.526 400.6C253.537 400.6 255.052 356.305 284.021 356.305C312.989 356.305 312.652 400.6 284.526 400.6ZM214.168 256.516H83.642C20.4841 256.516 25.4104 201.779 25.4104 201.779L2.4209 190.916C2.4209 157.948 46.3367 149.779 51.8104 190.916L53.9156 209.653H247.6L251.81 190.916C260.231 148.811 299.6 157.948 299.6 190.916L278.547 201.653C278.547 201.653 285.747 256.516 214.168 256.516ZM70.6735 192.474L51.3472 55.8844C51.3472 16.3055 89.5367 2.2002 150.758 2.2002C211.979 2.2002 248.021 15.3371 248.021 58.8318L232.568 188.348L70.6735 192.474ZM30.2104 356.305C59.1788 356.305 59.0104 400.6 30.7156 400.6C-0.273834 400.6 1.11563 356.305 30.2104 356.305ZM129.874 295.842L132.821 265.4L167.347 268.179L171.558 295.632C253.116 301.148 281.031 340.053 281.031 340.053L258.126 345.569C258.126 345.569 239.137 327.716 171.305 325.148L165.242 339.884L142.505 338.874L136.526 325.274C70.3788 328.305 53.8735 347.421 53.8735 347.421L29.663 339.884C29.663 339.884 51.1788 301.948 129.874 295.842ZM157.031 356.305C186 356.305 185.831 400.6 157.537 400.6C126.547 400.6 127.937 356.305 157.031 356.305Z" fill="#AB8E63" stroke="#AB8E63" stroke-width="4.21053"/>
</svg>
